<svg width="40" height="40" viewBox="0 0 40 40" fill="none" xmlns="http://www.w3.org/2000/svg">
<path opacity="0.15" fill-rule="evenodd" clip-rule="evenodd" d="M20 3C11.7157 3 5 9.71573 5 18C5 22.8 7.2 27.1 10.6 30C11.5 30.8 12 32 12 33.2V36C12 37.7 13.3 39 15 39H25C26.7 39 28 37.7 28 36V33.2C28 32 28.5 30.8 29.4 30C32.8 27.1 35 22.8 35 18C35 9.71573 28.2843 3 20 3ZM22 35H18V33H22V35ZM20 8C16.6863 8 14 10.6863 14 14C14 14.5523 14.4477 15 15 15C15.5523 15 16 14.5523 16 14C16 11.7909 17.7909 10 20 10C20.5523 10 21 9.55228 21 9C21 8.44772 20.5523 8 20 8Z" fill="url(#paint0_linear)"/>
<path d="M20 1C10.611 1 3 8.611 3 18C3 23.2 5.4 27.9 9.2 31C10.4 32.1 11 33.6 11 35.2V38C11 39.7 12.3 41 14 41H26C27.7 41 29 39.7 29 38V35.2C29 33.6 29.6 32.1 30.8 31C34.6 27.9 37 23.2 37 18C37 8.611 29.389 1 20 1ZM20 3C28.2843 3 35 9.71573 35 18C35 22.4 32.9 26.4 29.7 29.1C28.3 30.3 27.5 32.2 27.4 34.2H12.6C12.5 32.2 11.7 30.3 10.3 29.1C7.1 26.4 5 22.4 5 18C5 9.71573 11.7157 3 20 3ZM27 38C27 38.6 26.6 39 26 39H14C13.4 39 13 38.6 13 38V36.2H27V38Z" fill="url(#paint1_linear)"/>
<path d="M20 6C15.5817 6 12 9.58172 12 14C12 14.5523 12.4477 15 13 15C13.5523 15 14 14.5523 14 14C14 10.6863 16.6863 8 20 8C20.5523 8 21 7.55228 21 7C21 6.44772 20.5523 6 20 6Z" fill="url(#paint2_linear)"/>
<defs>
<linearGradient id="paint0_linear" x1="6.66667" y1="3" x2="31.2" y2="37.6" gradientUnits="userSpaceOnUse">
<stop offset="0.259336" stop-color="#FFDB6E"/>
<stop offset="1" stop-color="#FFBC5E"/>
</linearGradient>
<linearGradient id="paint1_linear" x1="5.26667" y1="1" x2="32.4" y2="39.2" gradientUnits="userSpaceOnUse">
<stop offset="0.259336" stop-color="#FFDB6E"/>
<stop offset="1" stop-color="#FFBC5E"/>
</linearGradient>
<linearGradient id="paint2_linear" x1="12.8" y1="6" x2="20.4" y2="14.8" gradientUnits="userSpaceOnUse">
<stop offset="0.259336" stop-color="#FFDB6E"/>
<stop offset="1" stop-color="#FFBC5E"/>
</linearGradient>
</defs>
</svg>
